<?xml version="1.0" standalone="no"?>
<!DOCTYPE svg PUBLIC "-//W3C//DTD SVG 20010904//EN"
 "http://www.w3.org/TR/2001/REC-SVG-20010904/DTD/svg10.dtd">
<svg version="1.0" xmlns="http://www.w3.org/2000/svg"
 width="512.000000pt" height="512.000000pt" viewBox="0 0 512.000000 512.000000"
 preserveAspectRatio="xMidYMid meet">
<metadata>
Created by potrace 1.14, written by Peter Selinger 2001-2017
</metadata>
<g transform="translate(0.000000,512.000000) scale(0.100000,-0.100000)"
fill="#000000" stroke="none">
<path d="M0 2560 l0 -2560 2560 0 2560 0 0 2560 0 2560 -2560 0 -2560 0 0
-2560z m2980 1395 l0 -215 215 0 215 0 0 -210 0 -210 210 0 210 0 0 -1185 0
-1185 -210 0 -210 0 0 485 0 485 -850 0 -850 0 0 -485 0 -485 -215 0 -215 0 0
1185 0 1185 215 0 215 0 0 210 0 210 210 0 210 0 0 215 0 215 425 0 425 0 0
-215z"/>
<path d="M2130 3530 l0 -210 -210 0 -210 0 0 -490 0 -490 850 0 850 0 0 490 0
490 -215 0 -215 0 0 210 0 210 -425 0 -425 0 0 -210z"/>
</g>
</svg>
